# Blender v2.93.2 OBJ File: 'coolestuff.blend'
# www.blender.org
mtllib bord.mtl
o Cube
v -0.688413 4.628263 -3.293165
v -0.688413 0.256092 -3.293165
v -0.698434 4.408466 3.308168
v -0.698434 0.475889 3.308168
v -0.887809 4.778659 -3.442386
v -0.887809 0.105696 -3.442386
v -0.877738 4.542684 3.442386
v -0.877738 0.341671 3.442386
v -0.688363 4.778659 -3.442386
v -0.688363 0.105696 -3.442386
v -0.698434 4.542684 3.442386
v -0.698434 0.341671 3.442386
v -0.688363 4.778659 -3.442386
v -0.688363 0.105696 -3.442386
v -0.698434 4.542684 3.442386
v -0.698434 0.341671 3.442386
v -0.817966 4.628144 -3.293173
v -0.817966 0.256210 -3.293173
v -0.814963 4.408466 3.308168
v -0.814963 0.475889 3.308168
vt 0.625000 0.500000
vt 0.875000 0.500000
vt 0.875000 0.750000
vt 0.625000 0.750000
vt 0.375000 0.750000
vt 0.625000 1.000000
vt 0.375000 1.000000
vt 0.375000 0.000000
vt 0.625000 0.000000
vt 0.625000 0.250000
vt 0.375000 0.250000
vt 0.125000 0.500000
vt 0.375000 0.500000
vt 0.125000 0.750000
vt 0.382987 0.504874
vt 0.617013 0.504874
vt 0.617013 0.504874
vt 0.382987 0.504874
vt nan nan
vt nan nan
vt nan nan
vt nan nan
vt nan nan
vt nan nan
vt nan nan
vt nan nan
vt 0.625000 0.750000
vt 0.625000 0.500000
vt 0.375000 0.500000
vt 0.375000 0.750000
vt 0.382987 0.745126
vt 0.617013 0.745126
vt 0.617013 0.745126
vt 0.382987 0.745126
vn 0.0000 0.9994 0.0343
vn 0.0000 0.0000 1.0000
vn -1.0000 0.0000 0.0015
vn 0.0000 -0.9994 0.0343
vn -0.0001 0.0000 1.0000
vn 0.0000 0.0000 -1.0000
vn 1.0000 0.0000 0.0003
vn 1.0000 0.0000 0.0000
vn 1.0000 -0.0001 0.0015
vn 1.0000 0.0001 0.0015
vn 1.0000 0.0000 -0.0005
vn 0.0005 0.9994 -0.0333
vn 0.0005 -0.9994 -0.0333
usemtl Material
s off
f 9/1/1 5/2/1 7/3/1 11/4/1
f 12/5/2 11/4/2 7/6/2 8/7/2
f 8/8/3 7/9/3 5/10/3 6/11/3
f 6/12/4 10/13/4 12/5/4 8/14/4
f 2/15/5 1/16/5 17/17/5 18/18/5
f 6/11/6 5/10/6 9/1/6 10/13/6
f 13/19/2 14/20/2 10/21/2 9/22/2
f 16/23/2 15/24/2 11/25/2 12/26/2
f 15/27/2 13/28/2 9/1/2 11/4/2
f 14/29/2 16/30/2 12/5/2 10/13/2
f 1/16/7 2/15/7 14/29/7 13/28/7
f 4/31/8 3/32/8 15/27/8 16/30/8
f 3/32/9 1/16/9 13/28/9 15/27/9
f 2/15/10 4/31/10 16/30/10 14/29/10
f 18/18/11 17/17/11 19/33/11 20/34/11
f 4/31/12 2/15/12 18/18/12 20/34/12
f 3/32/6 4/31/6 20/34/6 19/33/6
f 1/16/13 3/32/13 19/33/13 17/17/13
